<svg width="15" height="15" viewBox="0 0 15 15" fill="none" xmlns="http://www.w3.org/2000/svg">
<path d="M10.0172 4.32755L10.0741 4.44785L10.2057 4.46779L13.934 5.03276C14.7022 5.14916 15.0373 6.15577 14.4581 6.74444L14.458 6.74445L11.7604 9.48683L11.6713 9.57738L11.6919 9.70272L12.3287 13.575C12.467 14.4158 11.6308 15.0049 10.9548 14.6343L7.62019 12.806L7.5 12.7401L7.3798 12.806L4.04521 14.6343C4.0452 14.6343 4.0452 14.6343 4.04519 14.6343C3.36911 15.0049 2.53294 14.4158 2.67123 13.575L2.42454 13.5345L2.67123 13.575L3.30808 9.70272L3.32869 9.57738L3.23961 9.48683L0.541849 6.74445C-0.0372277 6.15579 0.297847 5.14916 1.06604 5.03276L4.79425 4.46779L4.92583 4.44785L4.98276 4.32755L6.65007 0.804409C6.9999 0.0651995 8.00008 0.065193 8.34992 0.804413L10.0172 4.32755Z" stroke="black" stroke-width="0.5"/>
</svg>
