<svg width="25" height="25" viewBox="0 0 25 25" fill="none" xmlns="http://www.w3.org/2000/svg">
<g id="&#240;&#159;&#166;&#134; icon &#34;Search Plus&#34;">
<path id="Vector" d="M14.3767 9.45081V10.9387C14.3767 11.2456 14.1226 11.4967 13.812 11.4967H11.177V14.1006C11.177 14.4075 10.9229 14.6586 10.6123 14.6586H9.10655C8.79599 14.6586 8.5419 14.4075 8.5419 14.1006V11.4967H5.90682C5.59626 11.4967 5.34217 11.2456 5.34217 10.9387V9.45081C5.34217 9.14392 5.59626 8.89284 5.90682 8.89284H8.5419V6.28895C8.5419 5.98206 8.79599 5.73097 9.10655 5.73097H10.6123C10.9229 5.73097 11.177 5.98206 11.177 6.28895V8.89284H13.812C14.1226 8.89284 14.3767 9.14392 14.3767 9.45081ZM23.8347 22.6888L22.5031 24.0047C22.0608 24.4418 21.3455 24.4418 20.9079 24.0047L16.2118 19.3688C16.0001 19.1596 15.8825 18.876 15.8825 18.5784V17.8205C14.2214 19.1038 12.1322 19.8664 9.85943 19.8664C4.45283 19.8664 0.0720215 15.5374 0.0720215 10.1948C0.0720215 4.85216 4.45283 0.523193 9.85943 0.523193C15.266 0.523193 19.6468 4.85216 19.6468 10.1948C19.6468 12.4406 18.8751 14.5051 17.5764 16.1465H18.3434C18.6446 16.1465 18.9316 16.2628 19.1434 16.472L23.8347 21.1079C24.2723 21.5449 24.2723 22.2517 23.8347 22.6888ZM16.2589 10.1948C16.2589 6.69813 13.398 3.87105 9.85943 3.87105C6.32091 3.87105 3.45997 6.69813 3.45997 10.1948C3.45997 13.6914 6.32091 16.5185 9.85943 16.5185C13.398 16.5185 16.2589 13.6914 16.2589 10.1948Z" fill="gray"/>
</g>
</svg>
