<svg width="16" height="20" viewBox="0 0 16 20" fill="none" xmlns="http://www.w3.org/2000/svg">
<path d="M6.00019 18H10.0002C10.0002 19.1046 9.10476 20 8.00019 20C6.89563 20 6.00019 19.1046 6.00019 18ZM14.8802 12.88C14.3174 12.3179 14.0009 11.5554 14.0002 10.76V8C14.0002 6.70178 13.5791 5.43858 12.8002 4.4L11.9002 3.2C11.3336 2.44458 10.4445 2 9.50019 2H9.00019V0.5C9.00019 0.223858 8.77634 0 8.50019 0H7.50019C7.22405 0 7.00019 0.223858 7.00019 0.5V2H6.50019C5.55592 2 4.66676 2.44458 4.10019 3.2L3.20019 4.4C2.42126 5.43858 2.00019 6.70178 2.00019 8V10.76C1.99949 11.5554 1.68296 12.3179 1.12019 12.88L0.290195 13.71C0.10545 13.8963 0.00129917 14.1477 0.00019455 14.41V15C0.00019455 15.5523 0.44791 16 1.00019 16H15.0002C15.5525 16 16.0002 15.5523 16.0002 15V14.41C15.9991 14.1477 15.8949 13.8963 15.7102 13.71L14.8802 12.88Z" fill="black"/>
</svg>
