<svg width="29" height="29" viewBox="0 0 29 29" fill="none" xmlns="http://www.w3.org/2000/svg">
<path d="M22.1047 19.7876C23.1871 18.237 23.7664 16.391 23.7641 14.5C23.7641 9.38349 19.6167 5.23608 14.5002 5.23608C9.38373 5.23608 5.23633 9.38349 5.23633 14.5C5.23633 19.6165 9.38373 23.7639 14.5002 23.7639C16.0139 23.7639 17.4413 23.3985 18.7032 22.7549L20.6422 23.5814L22.9493 24.5654L22.5127 22.0956L22.1047 19.7876Z" fill="white"/>
<path d="M22.1047 19.7876C23.1871 18.237 23.7664 16.391 23.7641 14.5C23.7641 9.38349 19.6167 5.23608 14.5002 5.23608C9.38373 5.23608 5.23633 9.38349 5.23633 14.5C5.23633 19.6165 9.38373 23.7639 14.5002 23.7639C16.0139 23.7639 17.4413 23.3985 18.7032 22.7549L20.6422 23.5814L22.9493 24.5654L22.5127 22.0956L22.1047 19.7876Z" stroke="black" stroke-width="1.8" stroke-miterlimit="10" stroke-linecap="round" stroke-linejoin="round"/>
</svg>
