<svg width="30" height="18" viewBox="0 0 30 18" fill="none" xmlns="http://www.w3.org/2000/svg">
<rect width="30" height="18" fill="#F5F5F5"/>
<g id="&#237;&#154;&#140;&#236;&#155;&#144;&#234;&#176;&#128;&#236;&#158;&#133;">
<rect width="1512" height="982" transform="translate(-557 -438)" fill="white"/>
<g id="Group 40">
<g id="&#237;&#154;&#140;&#236;&#155;&#144;&#234;&#176;&#128;&#236;&#158;&#133; &#237;&#143;&#188;">
<g id="Group 36">
<rect id="Rectangle 13" x="-27" y="-29" width="461" height="73" rx="10" fill="#F4F5F7"/>
<g id="&#240;&#159;&#166;&#134; icon &#34;Envelope&#34;">
<path id="Vector" d="M29.4161 5.94375C29.6445 5.79844 29.9842 5.93437 29.9842 6.16406V15.75C29.9842 16.9922 28.7251 18 27.1732 18H2.81102C1.2591 18 0 16.9922 0 15.75V6.16875C0 5.93438 0.333809 5.80312 0.56806 5.94844C1.87987 6.76406 3.61919 7.8 9.59261 11.2734C10.8283 11.9953 12.9131 13.5141 14.9921 13.5047C17.0828 13.5188 19.2086 11.9672 20.3975 11.2734C26.3709 7.8 28.1043 6.75938 29.4161 5.94375ZM14.9921 12C16.3508 12.0188 18.3068 10.6313 19.2906 10.0594C27.0619 5.54531 27.6534 5.15156 29.4454 4.02656C29.7851 3.81562 29.9842 3.4875 29.9842 3.14062V2.25C29.9842 1.00781 28.7251 0 27.1732 0H2.81102C1.2591 0 0 1.00781 0 2.25V3.14062C0 3.4875 0.199114 3.81094 0.538779 4.02656C2.3308 5.14687 2.92229 5.54531 10.6936 10.0594C11.6774 10.6313 13.6334 12.0188 14.9921 12Z" fill="black" fill-opacity="0.2"/>
</g>
</g>
</g>
</g>
</g>
</svg>
