<svg width="15" height="15" viewBox="0 0 15 15" fill="none" xmlns="http://www.w3.org/2000/svg">
<path d="M6.42399 0.697442C6.86409 -0.232518 8.13568 -0.232515 8.57579 0.697442L10.2431 4.22058L13.9713 4.78555C14.9555 4.93467 15.3484 6.19587 14.6362 6.91975L11.9385 9.66212L12.5753 13.5344C12.7434 14.5565 11.7147 15.336 10.8345 14.8535L7.49989 13.0252L4.16528 14.8535C3.28507 15.336 2.25633 14.5565 2.42444 13.5344L3.06129 9.66212L0.363525 6.91975C-0.348565 6.19587 0.0443807 4.93467 1.02848 4.78555L4.75669 4.22058L6.42399 0.697442ZM7.49989 1.958L8.30257 5.32251C9.88721 6.50445 7.42539 9.76974 6.94157 9.38634L7.6164 7.71628L6.42399 8.35352C6.70675 8.64097 8.57579 9.66212 4.5661 9.76443L10.8345 7.71628L6.94157 11.5643C7.2911 11.3727 7.56855 4.80892 8.30257 7.71628L7.49989 7.10463C7.43314 6.69873 10.5517 5.3477 10.8345 5.06024L13.1542 6.24218L9.87137 5.74471C9.4806 5.68549 4.93145 11.9336 4.75669 11.5643L7.49989 1.958Z" fill="#F7E600"/>
</svg>
