<svg width="20" height="20" viewBox="0 0 20 20" fill="none" xmlns="http://www.w3.org/2000/svg">
<g id="&#240;&#159;&#166;&#134; icon &#34;fire&#34;">
<path id="Vector" d="M9.91384 20C4.11395 20 0 16.7282 0 12.2199C0 9.82656 1.76405 7.24824 1.83905 7.14027C1.99215 6.91842 2.29295 6.79792 2.60683 6.8261C2.75864 6.84203 2.90118 6.89438 3.01627 6.97647C3.13136 7.05856 3.2138 7.16668 3.25306 7.28704C3.25768 7.30175 3.73311 8.74911 4.36049 9.55274C4.78208 10.0935 5.20943 10.4756 5.69026 10.741C5.36484 9.59376 5.11558 7.86757 5.52139 6.09632C6.63537 1.23446 11.339 0.0712584 11.5406 0.0243171C11.7998 -0.0360806 12.0749 0.0180583 12.2722 0.164182C12.4691 0.310952 12.5592 0.53095 12.508 0.744396C12.5003 0.778506 11.7237 4.18237 13.3719 7.08271C13.5216 7.34619 13.7304 7.65227 13.9551 7.95864C14.0189 7.53804 14.1182 7.09085 14.2705 6.6568C14.8752 4.93623 16.4388 4.34886 16.505 4.32505C16.7658 4.22835 17.0701 4.26027 17.2955 4.40391C17.4057 4.47461 17.4901 4.56847 17.5396 4.67535C17.5891 4.78222 17.6018 4.89807 17.5763 5.01038C17.5682 5.05262 17.3501 6.22367 18.5748 7.88443C19.6807 9.38405 20 10.356 20 12.2203C20 16.7282 15.7584 20 9.91386 20H9.91384ZM2.39566 9.13311C1.9733 9.99964 1.53823 11.1525 1.53823 12.2196C1.53823 16.0024 5.00477 18.7479 9.9134 18.7479C14.8659 18.7479 18.4609 16.0024 18.4609 12.2196C18.4609 10.5857 18.2128 9.82717 17.255 8.52784C16.6149 7.66005 16.2987 6.87989 16.1475 6.25901C15.9952 6.45961 15.8537 6.70464 15.7502 6.99974C15.2813 8.33352 15.3994 9.89322 15.401 9.90918C15.4237 10.1883 15.2148 10.4465 14.8901 10.5401C14.5655 10.6337 14.2043 10.5413 14.005 10.312C13.9473 10.2453 12.5791 8.66966 11.9759 7.60816C10.7235 5.40599 10.7447 3.02482 10.8724 1.6532C9.60491 2.25405 7.65892 3.59625 7.03385 6.32604C6.42532 8.98229 7.60776 11.6382 7.62045 11.6645C7.72277 11.8814 7.66853 12.1273 7.48082 12.302C7.29234 12.4756 7.00231 12.5526 6.72266 12.4981C6.62729 12.4791 4.46202 12.0209 3.06032 10.2237C2.80991 9.90169 2.58527 9.51208 2.39566 9.13311Z" fill="#ff8049"/>
</g>
</svg>
