<svg width="19" height="20" viewBox="0 0 19 20" fill="none" xmlns="http://www.w3.org/2000/svg">
<g id="&#240;&#159;&#166;&#134; icon &#34;stockswidget&#34;">
<g id="Group">
<path id="Vector" d="M1 1V17.8849C1 18.1408 1.09681 18.3862 1.26914 18.5671C1.44147 18.7481 1.6752 18.8497 1.91891 18.8497H17.9997" stroke="#ff8049" stroke-width="1.14372" stroke-linecap="round" stroke-linejoin="round"/>
<path id="Vector_2" d="M1 15.7139H2.37836" stroke="#ff8049" stroke-width="1.14372" stroke-linecap="round" stroke-linejoin="round"/>
<path id="Vector_3" d="M1 12.8195H2.37836" stroke="#ff8049" stroke-width="1.14372" stroke-linecap="round" stroke-linejoin="round"/>
<path id="Vector_4" d="M1 9.92493H2.37836" stroke="#ff8049" stroke-width="1.14372" stroke-linecap="round" stroke-linejoin="round"/>
<path id="Vector_5" d="M1 7.03027H2.37836" stroke="#ff8049" stroke-width="1.14372" stroke-linecap="round" stroke-linejoin="round"/>
<path id="Vector_6" d="M1 4.1358H2.37836" stroke="#ff8049" stroke-width="1.14372" stroke-linecap="round" stroke-linejoin="round"/>
<path id="Vector_7" d="M16.3913 5.82424C17.2794 5.82424 17.9994 5.06828 17.9994 4.13575C17.9994 3.20323 17.2794 2.44727 16.3913 2.44727C15.5032 2.44727 14.7832 3.20323 14.7832 4.13575C14.7832 5.06828 15.5032 5.82424 16.3913 5.82424Z" stroke="#ff8049" stroke-width="1.14372" stroke-linecap="round" stroke-linejoin="round"/>
<path id="Vector_8" d="M13.7634 12.1344C14.6515 12.1344 15.3714 11.3784 15.3714 10.4459C15.3714 9.51335 14.6515 8.75739 13.7634 8.75739C12.8752 8.75739 12.1553 9.51335 12.1553 10.4459C12.1553 11.3784 12.8752 12.1344 13.7634 12.1344Z" stroke="#ff8049" stroke-width="1.14372" stroke-linecap="round" stroke-linejoin="round"/>
<path id="Vector_9" d="M8.51238 8.71877C9.4005 8.71877 10.1205 7.96281 10.1205 7.03029C10.1205 6.09776 9.4005 5.3418 8.51238 5.3418C7.62426 5.3418 6.9043 6.09776 6.9043 7.03029C6.9043 7.96281 7.62426 8.71877 8.51238 8.71877Z" stroke="#ff8049" stroke-width="1.14372" stroke-linecap="round" stroke-linejoin="round"/>
<path id="Vector_10" d="M5.45672 15.9551C6.34484 15.9551 7.0648 15.1991 7.0648 14.2666C7.0648 13.3341 6.34484 12.5781 5.45672 12.5781C4.5686 12.5781 3.84863 13.3341 3.84863 14.2666C3.84863 15.1991 4.5686 15.9551 5.45672 15.9551Z" stroke="#ff8049" stroke-width="1.14372" stroke-linecap="round" stroke-linejoin="round"/>
<path id="Vector_11" d="M6.10938 12.723L7.85989 8.5741" stroke="#ff8049" stroke-width="1.14372" stroke-linecap="round" stroke-linejoin="round"/>
<path id="Vector_12" d="M12.3993 9.55828L9.87695 7.91803" stroke="#ff8049" stroke-width="1.14372" stroke-linecap="round" stroke-linejoin="round"/>
<path id="Vector_13" d="M15.7529 5.68433L14.4297 8.91175" stroke="#ff8049" stroke-width="1.14372" stroke-linecap="round" stroke-linejoin="round"/>
</g>
</g>
</svg>
