<svg width="98" height="95" viewBox="0 0 98 95" fill="none" xmlns="http://www.w3.org/2000/svg">
<path d="M49 11.8751C52.0285 11.8751 54.989 12.7457 57.5072 14.3767C60.0253 16.0078 61.9879 18.3261 63.1469 21.0384C64.3059 23.7508 64.6091 26.7353 64.0183 29.6147C63.4274 32.4941 61.9691 35.1391 59.8276 37.215C57.6861 39.2909 54.9577 40.7047 51.9873 41.2774C49.017 41.8502 45.9382 41.5562 43.1402 40.4327C40.3422 39.3092 37.9507 37.4067 36.2681 34.9656C34.5856 32.5246 33.6875 29.6547 33.6875 26.7189C33.6875 22.7821 35.3008 19.0065 38.1724 16.2228C41.0441 13.439 44.9389 11.8751 49 11.8751ZM49 5.93762C44.7601 5.93762 40.6154 7.15642 37.09 9.43989C33.5646 11.7234 30.8169 14.969 29.1943 18.7662C27.5718 22.5635 27.1473 26.7419 27.9744 30.7731C28.8016 34.8043 30.8433 38.5071 33.8414 41.4134C36.8395 44.3197 40.6593 46.299 44.8178 47.1008C48.9762 47.9027 53.2866 47.4911 57.2038 45.9182C61.121 44.3454 64.4691 41.6818 66.8246 38.2643C69.1802 34.8469 70.4375 30.829 70.4375 26.7189C70.4375 21.2073 68.1789 15.9215 64.1586 12.0243C60.1383 8.12707 54.6856 5.93762 49 5.93762Z" fill="black"/>
<path d="M79.625 89.0618H73.5V74.218C73.5 72.2687 73.1039 70.3385 72.3344 68.5376C71.5649 66.7366 70.437 65.1003 69.0151 63.7219C67.5932 62.3435 65.9051 61.2501 64.0473 60.5042C62.1896 59.7582 60.1984 59.3743 58.1875 59.3743H39.8125C35.7514 59.3743 31.8566 60.9382 28.9849 63.7219C26.1133 66.5056 24.5 70.2812 24.5 74.218V89.0618H18.375V74.218C18.375 68.7065 20.6336 63.4207 24.6539 59.5235C28.6742 55.6262 34.1269 53.4368 39.8125 53.4368H58.1875C63.8731 53.4368 69.3258 55.6262 73.3461 59.5235C77.3664 63.4207 79.625 68.7065 79.625 74.218V89.0618Z" fill="black"/>
</svg>
