<svg width="27" height="23" viewBox="0 0 27 23" fill="none" xmlns="http://www.w3.org/2000/svg">
<g id="&#240;&#159;&#166;&#134; icon &#34;User&#34;">
<path id="Vector" d="M13.5 2.78806C14.3344 2.78806 15.15 2.99246 15.8438 3.3754C16.5376 3.75834 17.0783 4.30264 17.3976 4.93945C17.7169 5.57626 17.8005 6.27699 17.6377 6.95302C17.4749 7.62905 17.0731 8.25003 16.4831 8.73742C15.8931 9.22482 15.1414 9.55674 14.323 9.69121C13.5047 9.82568 12.6564 9.75667 11.8856 9.49289C11.1147 9.22911 10.4558 8.78243 9.99224 8.20931C9.52868 7.6362 9.28125 6.9624 9.28125 6.27312C9.28125 5.34883 9.72573 4.46239 10.5169 3.80881C11.3081 3.15524 12.3811 2.78806 13.5 2.78806ZM13.5 1.39404C12.3319 1.39404 11.1899 1.6802 10.2187 2.21632C9.24739 2.75244 8.49037 3.51444 8.04334 4.40598C7.59631 5.29751 7.47935 6.27853 7.70724 7.22498C7.93513 8.17143 8.49765 9.0408 9.32365 9.72315C10.1497 10.4055 11.202 10.8702 12.3478 11.0584C13.4935 11.2467 14.681 11.1501 15.7602 10.7808C16.8395 10.4115 17.7619 9.78615 18.4109 8.98379C19.0599 8.18143 19.4063 7.23811 19.4063 6.27312C19.4063 4.97911 18.784 3.7381 17.6764 2.82309C16.5687 1.90809 15.0664 1.39404 13.5 1.39404Z" fill="black"/>
<path id="Vector_2" d="M21.9375 20.9102H20.25V17.4252C20.25 16.9675 20.1409 16.5143 19.9289 16.0915C19.7169 15.6687 19.4061 15.2845 19.0144 14.9609C18.6226 14.6372 18.1575 14.3805 17.6457 14.2054C17.1339 14.0302 16.5853 13.9401 16.0313 13.9401H10.9688C9.84987 13.9401 8.77681 14.3073 7.98564 14.9609C7.19447 15.6144 6.75 16.5009 6.75 17.4252V20.9102H5.0625V17.4252C5.0625 16.1311 5.68476 14.8901 6.7924 13.9751C7.90004 13.0601 9.40232 12.5461 10.9688 12.5461H16.0313C17.5977 12.5461 19.1 13.0601 20.2076 13.9751C21.3152 14.8901 21.9375 16.1311 21.9375 17.4252V20.9102Z" fill="black"/>
</g>
</svg>
