<svg width="29" height="18" viewBox="0 0 29 18" fill="none" xmlns="http://www.w3.org/2000/svg">
<path d="M28.2474 5.80266C25.8994 5.96131 22.5496 8.28212 20.8543 9.04363C19.5353 9.63743 18.3975 10.1496 17.4048 10.1496C16.3804 10.1496 16.2263 9.41533 16.4394 7.79711C16.4892 7.43448 16.9697 4.2071 14.5038 4.34762C13.3661 4.41561 11.5892 5.47176 6.82068 10.059L8.70181 5.35844C10.0798 1.91802 6.29034 -1.5088 2.82272 0.69869L0.3342 2.37131C-0.00122994 2.58435 -0.100952 3.0331 0.112091 3.37306L0.891738 4.59693C1.10478 4.93689 1.55353 5.03661 1.89349 4.81903L4.52254 3.05576C5.35658 2.52542 6.3674 3.38213 6.00477 4.28416L1.55353 15.4168C1.2453 16.1828 1.67592 17.4067 2.89978 17.4067C3.27601 17.4067 3.6477 17.2617 3.9242 16.9806C5.83706 15.0678 10.9365 10.1496 13.4975 8.10534C13.3978 9.39719 13.4024 10.7752 14.4313 11.9039C15.1248 12.6654 16.1221 13.0507 17.4003 13.0507C19.014 13.0507 20.4826 12.3889 22.0374 11.6908C23.5332 11.0199 26.5249 8.85326 28.3108 8.7082C28.6961 8.67647 28.9998 8.37731 28.9998 7.99202V6.53698C29.0089 6.12449 28.6599 5.77546 28.2474 5.80266Z" fill="black" fill-opacity="0.2"/>
</svg>
