<svg width="22" height="25" viewBox="0 0 22 25" fill="none" xmlns="http://www.w3.org/2000/svg">
<path d="M19.2426 10.9375H18.0881V7.42188C18.0881 3.33008 14.8072 0 10.7759 0C6.74453 0 3.46367 3.33008 3.46367 7.42188V10.9375H2.30911C1.03429 10.9375 0 11.9873 0 13.2812V22.6562C0 23.9502 1.03429 25 2.30911 25H19.2426C20.5174 25 21.5517 23.9502 21.5517 22.6562V13.2812C21.5517 11.9873 20.5174 10.9375 19.2426 10.9375ZM14.2395 10.9375H7.31219V7.42188C7.31219 5.4834 8.86603 3.90625 10.7759 3.90625C12.6857 3.90625 14.2395 5.4834 14.2395 7.42188V10.9375Z" fill="black" fill-opacity="0.2"/>
</svg>
