<svg width="19" height="20" viewBox="0 0 19 20" fill="none" xmlns="http://www.w3.org/2000/svg">
<g id="Group">
<path id="Vector" d="M17.0625 0.791626H1.9375C1.17811 0.791626 0.5625 1.42589 0.5625 2.20829V17.7916C0.5625 18.574 1.17811 19.2083 1.9375 19.2083H17.0625C17.8219 19.2083 18.4375 18.574 18.4375 17.7916V2.20829C18.4375 1.42589 17.8219 0.791626 17.0625 0.791626Z" stroke="#DADADA"/>
<path id="Vector_2" d="M6.0625 7.87496C6.82189 7.87496 7.4375 7.2407 7.4375 6.45829C7.4375 5.67589 6.82189 5.04163 6.0625 5.04163C5.30311 5.04163 4.6875 5.67589 4.6875 6.45829C4.6875 7.2407 5.30311 7.87496 6.0625 7.87496Z" stroke="#DADADA"/>
<path id="Vector_3" d="M4 15.6667L6.0625 12.125L8.125 15.6667L11.5625 10L15 15.6667" stroke="#DADADA" stroke-linecap="round" stroke-linejoin="round"/>
</g>
</svg>
