<svg width="24" height="22" viewBox="0 0 24 22" fill="none" xmlns="http://www.w3.org/2000/svg">
<g id="&#240;&#159;&#166;&#134; icon &#34;Information&#34;">
<path id="Vector" d="M12.75 15.0652V9.58698H9.75V10.9565H11.25V15.0652H9V16.4348H15V15.0652H12.75Z" fill="#ff8049"/>
<path id="Vector_2" d="M12 5.47827C11.7775 5.47827 11.56 5.53851 11.375 5.65138C11.19 5.76425 11.0458 5.92467 10.9606 6.11236C10.8755 6.30005 10.8532 6.50659 10.8966 6.70584C10.94 6.90509 11.0472 7.08811 11.2045 7.23177C11.3618 7.37542 11.5623 7.47325 11.7805 7.51288C11.9988 7.55252 12.225 7.53217 12.4305 7.45443C12.6361 7.37669 12.8118 7.24503 12.9354 7.07611C13.059 6.90719 13.125 6.7086 13.125 6.50545C13.125 6.23302 13.0065 5.97176 12.7955 5.77912C12.5845 5.58649 12.2984 5.47827 12 5.47827Z" fill="#ff8049"/>
<path id="Vector_3" d="M12 20.5435C9.9233 20.5435 7.89323 19.9812 6.16652 18.9278C4.4398 17.8744 3.09399 16.3771 2.29927 14.6253C1.50455 12.8735 1.29661 10.9459 1.70176 9.08621C2.1069 7.22652 3.10693 5.51829 4.57538 4.17753C6.04383 2.83677 7.91476 1.9237 9.95156 1.55378C11.9884 1.18387 14.0996 1.37372 16.0182 2.09934C17.9368 2.82495 19.5767 4.05373 20.7304 5.6303C21.8842 7.20687 22.5 9.06041 22.5 10.9565C22.5 13.4991 21.3938 15.9376 19.4246 17.7355C17.4555 19.5334 14.7848 20.5435 12 20.5435ZM12 2.73914C10.22 2.73914 8.47992 3.22108 6.99987 4.12402C5.51983 5.02696 4.36628 6.31034 3.68509 7.81187C3.0039 9.3134 2.82567 10.9656 3.17294 12.5597C3.5202 14.1537 4.37737 15.6179 5.63604 16.7671C6.89472 17.9163 8.49836 18.699 10.2442 19.016C11.99 19.3331 13.7996 19.1704 15.4442 18.5484C17.0887 17.9265 18.4943 16.8732 19.4832 15.5219C20.4722 14.1705 21 12.5818 21 10.9565C21 8.77714 20.0518 6.68702 18.364 5.14596C16.6761 3.6049 14.387 2.73914 12 2.73914Z" fill="#ff8049"/>
</g>
</svg>
