<svg width="22" height="22" viewBox="0 0 22 22" fill="none" xmlns="http://www.w3.org/2000/svg">
<g id="&#240;&#159;&#166;&#134; icon &#34;money donation thin&#34;">
<path id="Vector" d="M22 14.4559H18.64V13.4492H21V1.00667H1.00001V13.4492H14.82V14.4559H0V0H22V14.4559ZM8.13998 10.6205V9.61382H11.48C11.9944 9.60701 12.4089 9.18619 12.41 8.66765V8.66754C12.4094 8.15071 11.9934 7.7319 11.48 7.73134H10.48C9.41407 7.73134 8.54998 6.8615 8.54998 5.78847C8.54998 4.71543 9.41411 3.84557 10.48 3.84557H13.82V4.85224H10.48C9.96637 4.85224 9.55002 5.2714 9.55002 5.78847C9.55002 6.30553 9.96639 6.72467 10.48 6.72467H11.48C12.5487 6.72467 13.415 7.59678 13.415 8.67259C13.415 9.7484 12.5487 10.6205 11.48 10.6205L8.13998 10.6205ZM11.5 4.34888H10.5V2.42612H11.5L11.5 4.34888ZM11.5 12.0298H10.5V10.1171H11.5L11.5 12.0298ZM17.084 22L16.377 21.2883C17.4661 20.1976 18.1401 18.6878 18.1401 17.0196C18.1401 17.0137 18.1401 17.0078 18.14 17.0019V17.0028V12.9761C18.1358 12.1954 17.5061 11.5642 16.73 11.5642C15.9513 11.5642 15.32 12.1997 15.32 12.9837V12.9916V12.9912V16.1844L14.844 16.424C13.9872 16.8601 13.41 17.7395 13.41 18.7547V18.765V18.7645H12.4101C12.41 18.7611 12.41 18.7571 12.41 18.753C12.41 17.3776 13.1754 16.1821 14.3009 15.5747L14.32 15.5652V12.9962L14.32 12.9836C14.32 11.6437 15.399 10.5575 16.73 10.5575C18.0566 10.5575 19.1329 11.6365 19.14 12.9703V17.0028C19.14 17.0085 19.14 17.0154 19.14 17.0222C19.14 18.9676 18.354 20.7281 17.0843 21.9997L17.084 22V22ZM8.73602 21.9688C7.46597 20.6971 6.67999 18.9367 6.67999 16.9914V16.9716V16.9726V13.9526H7.68V16.9887C7.68 18.6568 8.35398 20.1665 9.44275 21.2568L9.44301 21.257L8.73602 21.9688Z" fill="black"/>
</g>
</svg>
