<svg width="45" height="43" viewBox="0 0 45 43" fill="none" xmlns="http://www.w3.org/2000/svg">
<g id="&#240;&#159;&#166;&#134; icon &#34;User avatar filled&#34;">
<path id="Vector" d="M37.6157 32.8666C39.6347 30.5886 41.0388 27.8883 41.7093 24.9941C42.3797 22.0998 42.2969 19.0968 41.4676 16.2389C40.6384 13.381 39.0872 10.7524 36.9452 8.57537C34.8033 6.39835 32.1335 4.73696 29.1619 3.73174C26.1903 2.72651 23.0041 2.40701 19.8729 2.80027C16.7417 3.19352 13.7575 4.28796 11.1729 5.99101C8.58825 7.69406 6.47912 9.95563 5.02389 12.5844C3.56866 15.2132 2.81015 18.1319 2.81251 21.0937C2.81361 25.3997 4.43224 29.5678 7.38437 32.8666L7.35624 32.8885C7.45468 32.9999 7.56718 33.0951 7.66871 33.2038C7.79527 33.3404 7.93083 33.4675 8.06246 33.6004C8.45621 34.0003 8.86037 34.3851 9.2859 34.7474C9.41457 34.8569 9.54802 34.9599 9.67965 35.066C10.1296 35.4298 10.5915 35.7742 11.0718 36.0961C11.1339 36.1372 11.1888 36.1874 11.2513 36.2287V36.2119C14.5449 38.3848 18.4739 39.5509 22.5013 39.5509C26.5286 39.5509 30.4577 38.3848 33.7513 36.2119V36.2284C33.8137 36.1871 33.8687 36.1369 33.9307 36.0958C34.4105 35.774 34.8729 35.4295 35.3229 35.0658C35.4545 34.9603 35.588 34.8567 35.7167 34.7471C36.142 34.3847 36.5463 33.9999 36.9401 33.6001C37.0713 33.4675 37.2064 33.3402 37.3338 33.2036C37.4349 33.0948 37.5479 32.9996 37.6463 32.8882L37.6157 32.8666ZM22.5 10.5468C23.7516 10.5468 24.9751 10.8947 26.0157 11.5466C27.0564 12.1985 27.8675 13.125 28.3464 14.2091C28.8254 15.2931 28.9507 16.486 28.7065 17.6368C28.4624 18.7876 27.8597 19.8447 26.9747 20.6744C26.0897 21.5041 24.9621 22.0691 23.7346 22.298C22.507 22.5269 21.2347 22.4094 20.0783 21.9604C18.922 21.5114 17.9337 20.751 17.2384 19.7754C16.543 18.7998 16.1719 17.6528 16.1719 16.4794C16.1719 14.906 16.8386 13.397 18.0253 12.2844C19.2121 11.1718 20.8217 10.5468 22.5 10.5468ZM11.26 32.8666C11.2843 31.1355 12.0346 29.4831 13.3486 28.2667C14.6626 27.0503 16.4346 26.3679 18.2813 26.3671H26.7188C28.5654 26.3679 30.3374 27.0504 31.6514 28.2667C32.9654 29.4831 33.7157 31.1356 33.74 32.8666C30.6559 35.472 26.6516 36.9139 22.5 36.9139C18.3485 36.9139 14.3441 35.472 11.26 32.8666Z" fill="black"/>
</g>
</svg>
