<svg width="29" height="28" viewBox="0 0 29 28" fill="none" xmlns="http://www.w3.org/2000/svg">
<g id="material-symbols-light:how-to-vote-outline-rounded">
<path id="Vector" d="M6.50687 24.7684C5.95103 24.7684 5.48663 24.5887 5.11366 24.2294C4.74069 23.87 4.5542 23.4217 4.5542 22.8842V19.8649C4.5542 19.6378 4.59287 19.4142 4.6702 19.194C4.74834 18.9739 4.87239 18.7795 5.04237 18.6107L8.00762 15.379C8.12039 15.2468 8.26419 15.1795 8.43899 15.1772C8.61299 15.1749 8.76645 15.2379 8.89937 15.3662C9.01214 15.4751 9.07135 15.603 9.07699 15.75C9.08102 15.8963 9.02664 16.0339 8.91387 16.163L5.81207 19.5639H23.1879L20.1465 16.2214C20.0338 16.0923 19.9794 15.9546 19.9834 15.8084C19.9882 15.6622 20.0474 15.5342 20.161 15.4245C20.2939 15.2962 20.4474 15.2332 20.6214 15.2355C20.7962 15.2379 20.94 15.3055 21.0528 15.4385L23.9576 18.6107C24.1276 18.7795 24.2516 18.9739 24.3298 19.194C24.4071 19.4142 24.4458 19.6378 24.4458 19.8649V22.8842C24.4458 23.4209 24.2593 23.8693 23.8863 24.2294C23.5133 24.5895 23.0489 24.7696 22.4931 24.7696L6.50687 24.7684ZM6.50687 23.6017H22.4931C22.6945 23.6017 22.8689 23.5309 23.0163 23.3894C23.1637 23.2478 23.2374 23.0794 23.2374 22.8842V20.7317H5.76253V22.8854C5.76253 23.0798 5.83624 23.2482 5.98366 23.3905C6.13107 23.5329 6.30548 23.604 6.50687 23.604M13.1648 16.233L9.55549 12.7039C9.16882 12.3321 8.98073 11.8876 8.9912 11.3704C9.00167 10.8539 9.19984 10.4094 9.5857 10.0369L14.8782 4.92688C15.2649 4.55355 15.7228 4.36494 16.2521 4.36105C16.7821 4.35638 17.2401 4.54033 17.6259 4.91288L21.257 8.41872C21.6437 8.79205 21.839 9.23188 21.843 9.73822C21.8479 10.2453 21.6574 10.6848 21.2715 11.0565L15.9041 16.24C15.5174 16.6134 15.0607 16.7985 14.5338 16.7954C14.0062 16.793 13.5494 16.6056 13.1636 16.233M20.3785 10.2609C20.5026 10.1411 20.5646 9.96922 20.5646 9.74522C20.5646 9.52044 20.5026 9.34855 20.3785 9.22955L16.7934 5.76688C16.6694 5.6471 16.4913 5.58722 16.2593 5.58722C16.0265 5.58722 15.8481 5.6471 15.724 5.76688L10.417 10.8909C10.293 11.0099 10.2309 11.1818 10.2309 11.4065C10.2309 11.6305 10.293 11.8024 10.417 11.9222L14.0022 15.3849C14.1262 15.5039 14.3046 15.5634 14.5374 15.5634C14.7694 15.5634 14.9475 15.5039 15.0715 15.3849L20.3785 10.2609Z" fill="black"/>
</g>
</svg>
